<?xml version="1.0" encoding="utf-8"?>
<!-- Generator: Adobe Illustrator 15.0.0, SVG Export Plug-In  -->
<!DOCTYPE svg PUBLIC "-//W3C//DTD SVG 1.1//EN" "http://www.w3.org/Graphics/SVG/1.1/DTD/svg11.dtd" [
	<!ENTITY ns_flows "http://ns.adobe.com/Flows/1.0/">
]>
<svg version="1.1"
	 xmlns="http://www.w3.org/2000/svg" xmlns:xlink="http://www.w3.org/1999/xlink" xmlns:a="http://ns.adobe.com/AdobeSVGViewerExtensions/3.0/"
	 x="0px" y="0px" width="185px" height="185px" viewBox="-14.99 -3.499 185 185" enable-background="new -14.99 -3.499 185 185"
	 xml:space="preserve">
<defs>
</defs>
<path fill="#0089B0" d="M155.018,45.484c0.004-0.035,0.002-0.069,0-0.104c-0.002-0.025,0.002-0.05-0.002-0.075
	c-0.002-0.014-0.01-0.025-0.013-0.038c-0.008-0.033-0.021-0.064-0.032-0.096c-0.014-0.036-0.027-0.071-0.047-0.104
	c-0.016-0.027-0.035-0.051-0.056-0.077c-0.024-0.032-0.05-0.063-0.079-0.09c-0.01-0.007-0.014-0.018-0.021-0.025
	c-0.018-0.014-0.037-0.021-0.056-0.033c-0.032-0.022-0.063-0.043-0.101-0.061c-0.033-0.015-0.066-0.025-0.103-0.036
	c-0.022-0.007-0.043-0.019-0.065-0.023l-15.42-2.916c-0.203-0.037-0.416,0.015-0.58,0.145L118.619,57.91l5.182-20.69
	c0.044-0.18,0.019-0.372-0.075-0.532l-3.567-6.196c-0.097-0.164-0.253-0.294-0.435-0.343c-0.184-0.049-0.379-0.043-0.541,0.052
	l-7.418,4.25c-0.271,0.157-0.41,0.395-0.34,0.701l5.51,23.936c0.014,0.058,0.039,0.091,0.065,0.125l-0.342,0.275l-1.419-1.006
	l-2.807-6.83c-0.078-0.19-0.234-0.338-0.43-0.404l-6.977-2.401l-4.616-5.762c-0.13-0.16-0.319-0.258-0.524-0.267l-7.367-0.335
	l-4.892-3.415l19.545-6.225c0.298-0.094,0.498-0.37,0.498-0.682v-7.863c0-0.396-0.319-0.715-0.714-0.715h-7.854
	c-0.186,0-0.36,0.071-0.494,0.199l-14.57,14.024l3.873-25.075c0.032-0.207-0.028-0.417-0.165-0.576L77.517,0.245
	c-0.015-0.017-0.034-0.027-0.05-0.043c-0.028-0.026-0.055-0.052-0.087-0.074c-0.031-0.021-0.063-0.037-0.096-0.053
	c-0.021-0.01-0.038-0.025-0.06-0.034c-0.012-0.004-0.024-0.003-0.036-0.007c-0.035-0.011-0.071-0.017-0.108-0.022
	C77.043,0.006,77.008,0,76.974,0c-0.033,0-0.066,0.005-0.099,0.01c-0.039,0.005-0.077,0.012-0.115,0.023
	c-0.011,0.003-0.022,0.003-0.033,0.007c-0.021,0.008-0.036,0.022-0.056,0.031c-0.036,0.017-0.07,0.034-0.102,0.057
	c-0.031,0.021-0.057,0.047-0.084,0.072c-0.016,0.016-0.036,0.026-0.051,0.044L66.203,12.16c-0.136,0.158-0.196,0.369-0.164,0.576
	l3.873,25.075L55.34,23.787c-0.133-0.128-0.31-0.199-0.495-0.199h-7.853c-0.395,0-0.714,0.319-0.714,0.715v7.863
	c0,0.312,0.201,0.587,0.498,0.682l21.052,6.704l-3.062,1.78l-7.371-0.279c-0.196-0.009-0.404,0.074-0.545,0.222l-5.079,5.357
	l-7.15,1.812c-0.198,0.05-0.366,0.185-0.46,0.367l-3.365,6.573l-1.358,0.803l4.516-20.69c0.067-0.303-0.071-0.615-0.34-0.771
	l-6.8-3.93c-0.342-0.198-0.779-0.077-0.975,0.266l-3.926,6.817c-0.092,0.16-0.119,0.365-0.074,0.544l4.781,19.43l-0.099,0.059
	L16.933,42.144c-0.163-0.13-0.374-0.184-0.58-0.145L1.025,44.898c-0.149,0.007-0.295,0.059-0.415,0.159
	c-0.021,0.017-0.034,0.039-0.052,0.058c-0.002,0.002-0.004,0.004-0.006,0.006c-0.047,0.05-0.086,0.103-0.116,0.161
	c-0.004,0.008-0.008,0.017-0.012,0.025C0.4,45.36,0.381,45.414,0.371,45.471c-0.002,0.009-0.007,0.017-0.009,0.027
	c-0.003,0.018,0.001,0.035,0,0.052c-0.003,0.036-0.005,0.071-0.001,0.108c0.003,0.058,0.015,0.113,0.031,0.168
	c0.001,0.002,0,0.005,0.001,0.008l0.006,0.016c0.01,0.029,0.016,0.058,0.03,0.085L5.58,60.643C5.648,60.84,5.8,60.954,5.996,61.03
	l23.645,9.155l-0.13,0.14l-19.306,5.594c-0.177,0.052-0.327,0.17-0.419,0.33l-3.926,6.81c-0.197,0.342-0.08,0.779,0.262,0.977
	l6.8,3.932c0.111,0.064,0.234,0.096,0.356,0.096c0.174,0,0.347-0.064,0.481-0.187l13.968-12.756l0.494,5.063l-3.315,6.598
	c-0.092,0.184-0.101,0.398-0.024,0.589l2.756,6.851l-1.324,7.268c-0.037,0.201,0.015,0.41,0.142,0.57l2.24,2.84L13.399,90.935
	c-0.23-0.209-0.568-0.244-0.838-0.089l-6.799,3.937C5.42,94.98,5.304,95.423,5.5,95.767l3.926,6.824
	c0.092,0.16,0.243,0.309,0.42,0.359l19.241,5.631l-23.45,9.111c-0.195,0.076-0.346,0.232-0.415,0.432l-5.188,14.832
	c-0.007,0.02-0.007,0.043-0.012,0.063c-0.009,0.039-0.018,0.074-0.021,0.113c-0.003,0.037-0.001,0.07,0.001,0.105
	c0.001,0.023-0.003,0.049,0.001,0.072c0.002,0.014,0.009,0.025,0.012,0.037c0.008,0.035,0.021,0.066,0.033,0.098
	c0.014,0.035,0.026,0.07,0.045,0.104c0.016,0.027,0.037,0.053,0.057,0.078c0.024,0.031,0.049,0.063,0.079,0.09
	c0.008,0.008,0.014,0.018,0.022,0.025c0.014,0.012,0.032,0.016,0.047,0.025c0.04,0.029,0.081,0.053,0.126,0.072
	c0.031,0.014,0.061,0.023,0.093,0.033c0.02,0.006,0.037,0.016,0.057,0.02l15.419,2.916c0.044,0.01,0.088,0.014,0.132,0.014
	c0.161,0,0.319-0.055,0.448-0.158l19.748-15.896l-4.841,19.65c-0.045,0.18-0.018,0.367,0.074,0.527l3.926,6.811
	c0.095,0.164,0.251,0.283,0.434,0.334c0.061,0.016,0.123,0.023,0.185,0.023c0.124,0,0.248-0.033,0.357-0.096l6.8-3.932
	c0.269-0.156,0.407-0.469,0.34-0.773l-4.674-21.361l1.999,4.859c0.078,0.191,0.234,0.338,0.428,0.404l6.975,2.4l4.617,5.762
	c0.129,0.16,0.32,0.258,0.525,0.268l7.368,0.334l4.941,3.451l-18.988,5.717c-0.302,0.092-0.508,0.369-0.508,0.686v8.58
	c0,0.379,0.298,0.508,0.677,0.527l7.167,0.188c0.012,0,0.024,0,0.037,0c0.189,0,0.372,0.109,0.506-0.025l15.292-15.219l-3.92,25.381
	c-0.032,0.207,0.028,0.416,0.164,0.576l10.232,11.914c0.01,0.012,0.024,0.016,0.034,0.025c0.051,0.055,0.11,0.098,0.176,0.133
	c0.019,0.01,0.035,0.021,0.055,0.029c0.01,0.006,0.018,0.014,0.027,0.018c0.081,0.027,0.166,0.045,0.249,0.045
	s0.167-0.018,0.248-0.045c0.01-0.004,0.018-0.012,0.027-0.018c0.02-0.008,0.036-0.02,0.055-0.029
	c0.066-0.035,0.125-0.078,0.176-0.133c0.01-0.01,0.025-0.014,0.035-0.025l10.231-11.914c0.137-0.16,0.197-0.369,0.165-0.576
	l-3.87-25.059l15.281,14.721c0.133,0.129,0.311,0.201,0.495,0.201h7.139c0.395,0,0.714-0.32,0.714-0.715v-8.58
	c0-0.314-0.205-0.59-0.504-0.684l-21.152-6.518l2.572-1.496l7.37,0.279c0.209,0.02,0.404-0.072,0.545-0.223l5.079-5.357l7.149-1.813
	c0.199-0.051,0.367-0.184,0.459-0.367l3.367-6.572l2.172-1.285l-4.381,22.771c-0.058,0.301,0.08,0.604,0.344,0.754l7.418,4.289
	c0.109,0.064,0.234,0.098,0.357,0.098c0.074,0,0.146-0.012,0.219-0.035c0.192-0.063,0.351-0.201,0.433-0.387l3.046-6.766
	c0.066-0.15,0.081-0.32,0.037-0.48l-5.654-20.902l20.827,16.766c0.129,0.104,0.287,0.156,0.446,0.156
	c0.046,0,0.09-0.004,0.134-0.012l15.42-2.918c0.151-0.027,0.283-0.104,0.385-0.211c0.138-0.127,0.226-0.303,0.226-0.508
	c0-0.152-0.047-0.277-0.129-0.395l-5.127-14.658c-0.068-0.195-0.222-0.354-0.416-0.43l-23.603-9.172l20.368-5.895
	c0.177-0.051,0.326-0.168,0.421-0.328l3.567-6.189c0.197-0.344,0.08-0.779-0.26-0.977l-7.42-4.291
	c-0.271-0.156-0.611-0.117-0.842,0.096l-14.721,13.699c0.02-0.078,0.035-0.158,0.027-0.238l-0.719-7.354l3.315-6.599
	c0.092-0.185,0.102-0.397,0.024-0.589l-2.758-6.851l1.325-7.267c0.037-0.202-0.015-0.411-0.142-0.572l-4.074-5.163l0.133-0.052
	c0.012,0.175,0.081,0.345,0.215,0.471l18.438,17.443c0.137,0.13,0.313,0.195,0.49,0.195c0.123,0,0.246-0.031,0.356-0.096
	l7.418-4.289c0.342-0.197,0.459-0.635,0.263-0.977l-4.283-7.429c-0.096-0.165-0.252-0.285-0.437-0.333l-20.969-5.564l24.932-9.688
	c0.195-0.076,0.347-0.233,0.415-0.43l5.188-14.831c0.009-0.021,0.008-0.043,0.013-0.065
	C155.006,45.561,155.016,45.523,155.018,45.484z M112.934,35.506l6.342-3.668l3.07,5.323l-4.691,18.997L112.934,35.506z
	 M36.72,32.388l5.729,3.313l-4.61,21.071l-4.544-18.443L36.72,32.388z M144.766,77.483l3.778,6.552l-6.339,3.667l-16.01-15.146
	L144.766,77.483z M113.616,83.062l5.66,6.775l-6.85,5.586l-8.429-0.332l-0.075-0.77l1.801-3.585
	c0.092-0.184,0.103-0.397,0.024-0.588l-1.497-3.721l0.479-2.622L113.616,83.062z M102.848,86.771l1.455,3.613l-1.748,3.48
	c-0.063,0.119-0.087,0.256-0.074,0.391l0.076,0.779L86.254,94.39v-9.034l17.001-1.425l-0.446,2.445
	C102.786,86.509,102.799,86.646,102.848,86.771z M102.86,98.132l-2.147,2.301l-12.147-4.721l14.104,0.465L102.86,98.132z
	 M119.262,111.119l-0.486,2.559l-17.7-10.232l0.235-1.24l19.17,7.447l-1.039,1.113C119.35,110.865,119.289,110.986,119.262,111.119z
	 M95.674,107.429l-0.176,0.344l-5.604-8.088l7.9,6.361l-1.852,1.094C95.832,107.208,95.735,107.308,95.674,107.429z M95.682,110.546
	l5.346,7.713l-2.95,8.436l-8.336-3.285l-3.753-7.145l1.388,0.053c0.211,0.018,0.404-0.072,0.545-0.221l2.759-2.91l3.883-0.984
	c0.201-0.051,0.367-0.184,0.461-0.367L95.682,110.546z M93.899,110.896l-3.771,0.955c-0.131,0.033-0.249,0.105-0.343,0.201
	l-2.677,2.826l-1.887-0.072l-7.228-13.754l-0.188-1.219l7.209-4.168c0.017,0.033,0.038,0.063,0.06,0.092
	c0.014,0.02,0.029,0.035,0.046,0.055c0.027,0.031,0.047,0.068,0.081,0.096l0.764,0.613l8.796,12.693L93.899,110.896z
	 M68.417,114.226c-0.111-0.078-0.241-0.121-0.376-0.127l-3.886-0.178l-2.434-3.037c-0.085-0.105-0.197-0.186-0.325-0.23
	l-2.103-0.725l8.887-14.105L68.47,95.8c0.083-0.008,0.159-0.033,0.231-0.064l7.104,4.107c0.01,0.084,0.032,0.168,0.074,0.248
	l0.145,0.275l-6.791,14.428L68.417,114.226z M68.612,116.107l-4.23,8.984l-8.771,1.66l-1.325-8.873l4.224-6.705l2.227,0.766
	l2.507,3.129c0.129,0.16,0.32,0.26,0.525,0.268l4.001,0.184L68.612,116.107z M57.716,109.388l-1.481-3.602
	c-0.052-0.125-0.138-0.232-0.248-0.313l-0.354-0.252l10.012-8.059l-7.741,12.289L57.716,109.388z M32.557,108.767l18.644-7.244
	l0.164,1.555l-18.292,10.576L32.557,108.767z M52.406,99.349c-0.014-0.135-0.065-0.264-0.149-0.369l-1.354-1.717l9.306-0.775
	l-7.786,3.025L52.406,99.349z M50.494,80.334l1.422-1.524l13.039,5.049l-14.172-0.557L50.494,80.334z M32.042,69.704l1.868-2.001
	c0.092-0.099,0.155-0.222,0.18-0.354l0.31-1.63l17.701,10.234l-0.135,0.711l-0.536,0.574L32.042,69.704z M36.396,59.646l0.87,0.7
	c0.103,0.192,0.277,0.338,0.481,0.388l14.959,12.042l-0.32,1.686L34.685,64.226l0.764-4.021L36.396,59.646z M57.542,71.183
	l5.736,8.269l-8.306-6.686l2.434-1.439C57.465,71.293,57.498,71.231,57.542,71.183z M59.455,67.571l3.771-0.955
	c0.131-0.034,0.25-0.104,0.343-0.201l2.678-2.825l1.413,0.053l8.296,15.799l-7.384,4.27l-1.354-1.089l-8.9-12.83L59.455,67.571z
	 M57.395,68.462l-4.915-7.084l3.03-8.298l8.255,3.147l3.128,5.957l-0.916-0.035c-0.198-0.006-0.403,0.073-0.545,0.222l-2.758,2.909
	l-3.883,0.984c-0.2,0.051-0.367,0.185-0.46,0.368L57.395,68.462z M71.545,39.044l0.039-0.022l4.676,1.569v20.384l-1.4-0.47
	L71.545,39.044z M77.285,98.484c-0.016-0.008-0.036-0.008-0.052-0.014c-0.037-0.014-0.075-0.021-0.115-0.031
	c-0.03-0.006-0.056-0.021-0.087-0.023c-0.019,0-0.035,0.008-0.054,0.008c-0.02,0-0.037-0.008-0.057-0.008
	c-0.034,0.004-0.063,0.02-0.095,0.025c-0.035,0.01-0.069,0.016-0.102,0.027c-0.049,0.02-0.093,0.043-0.137,0.072
	c-0.028,0.02-0.056,0.035-0.081,0.059l-7.383-4.27v-9.119c0.041-0.038,0.091-0.062,0.124-0.11c0.037-0.054,0.055-0.114,0.075-0.173
	l7.476-4.322l8.03,4.644v8.875L77.285,98.484z M76.262,69.574l-1.155-7.478l1.155,0.387V69.574z M94.049,99.38l5.909,2.297
	l-0.192,1.01L94.049,99.38z M100.748,77.223l0.106,1.025l-5.734,2.229L100.748,77.223z M101.936,74.884l-0.012-0.111
	c-0.021-0.204-0.131-0.389-0.297-0.508l-0.555-0.394l15.639-12.589l3.457,2.454l0.061,0.571L101.936,74.884z M100.539,75.245
	l0.045,0.422l-6.179,3.572l5.512-4.436L100.539,75.245z M87.941,82.609l8.023-12.731l1.153,2.804
	c0.051,0.125,0.137,0.232,0.246,0.311l1.341,0.951L87.941,82.609z M95.714,67.594l-3.098-1.066l-2.507-3.129
	c-0.129-0.16-0.32-0.257-0.525-0.267l-4-0.182l-0.18-0.125l3.893-8.278l8.689-1.522l1.406,8.734L95.714,67.594z M84.937,64.241
	c0.11,0.078,0.242,0.122,0.377,0.127l3.885,0.177l2.435,3.038c0.085,0.106,0.197,0.185,0.325,0.229l2.976,1.024l-9.521,15.102
	l-7.811-4.517l7.186-15.284L84.937,64.241z M78.39,74.392l1.854-12.011l1.502-0.368l1.854,1.295L78.39,74.392z M77.688,69.574
	v-6.646c0.093,0.015,0.187,0.034,0.279,0.012l0.775-0.19L77.688,69.574z M77.829,61.501l-0.139-0.047V41.07l0.779,0.261
	c0.129,0.042,0.267,0.048,0.396,0.017l3.31-0.812l-3.193,20.682L77.829,61.501z M75.83,76.132l-6.526-12.427l0.829,0.031
	c0.126,0.008,0.269-0.029,0.385-0.096l3.104-1.803L75.83,76.132z M60.958,79.417l-7.263-4.199l0.271-1.429L60.958,79.417z
	 M53.15,77.489c0.092-0.098,0.155-0.221,0.18-0.354l0.081-0.425l6.847,3.958l-7.393-2.873L53.15,77.489z M47.605,88.318l1.497,3.721
	l-0.719,3.945c-0.003,0.02,0.003,0.037,0.001,0.057l-8.234,0.686l-5.82-6.775l7.01-5.586l7.826,0.308l-1.537,3.059
	C47.538,87.913,47.528,88.127,47.605,88.318z M50.504,91.696l-1.455-3.612l1.684-3.352l16.695,0.656
	c0.077,0.081,0.165,0.14,0.266,0.176v8.016l-2.786,1.084l-15.062,1.254l0.698-3.824C50.568,91.958,50.555,91.822,50.504,91.696z
	 M59.902,98.14l-7.185,4.154l-0.138-1.309L59.902,98.14z M51.973,104.376l1.294,0.92l-15.639,12.588l-4.047-2.873L51.973,104.376z
	 M53.333,103.591l7.283-4.211l-6.192,4.984L53.333,103.591z M75.31,105.232l-1.655,10.721l-2.047,0.502l-1.189-0.83L75.31,105.232z
	 M76.262,108.425v7.279l-0.479-0.16c-0.073-0.025-0.15-0.037-0.227-0.037c-0.057,0-0.114,0.006-0.17,0.02l-0.23,0.059
	L76.262,108.425z M77.688,108.425l1.264,8.184l-1.264-0.424V108.425z M75.524,116.966l0.736,0.246v20.385l-1.376-0.461
	c-0.073-0.025-0.149-0.037-0.227-0.037c-0.057,0-0.113,0.006-0.17,0.02l-2.763,0.678l3.194-20.682L75.524,116.966z M77.688,117.693
	l1.509,0.506l3.223,20.867l-0.651,0.379l-4.081-1.367V117.693z M78.667,105.402l4.908,9.344l-0.354-0.016
	c-0.141-0.012-0.271,0.029-0.387,0.098l-2.488,1.445L78.667,105.402z M93.334,100.619l6.148,3.555l-0.188,0.986l-0.185,0.109
	L93.334,100.619z M100.637,105.746l0.155-0.814l17.7,10.234l-0.59,3.096l-1.528,0.904l-16.075-12.939
	C100.477,106.123,100.6,105.947,100.637,105.746z M91.288,83.5l9.931-3.859l2.239,2.838L91.288,83.5z M102.235,77.712L102.1,76.44
	l18.293-10.577l0.484,4.604L102.235,77.712z M139.083,43.274l13.205,2.497l-6.204,3.587l-24.501,14.167l-0.026-0.26
	c-0.021-0.205-0.131-0.39-0.298-0.508l-3.39-2.406L139.083,43.274z M85.917,39.619l5.954,4.159c0.11,0.078,0.241,0.122,0.376,0.128
	l7.253,0.33l4.544,5.671c0.084,0.105,0.197,0.184,0.324,0.228l6.866,2.364L114,59.222c0.051,0.125,0.138,0.232,0.247,0.31
	l1.255,0.891l-15.64,12.589l-1.502-1.067l-1.461-3.551l3.847-6.102c0.094-0.147,0.129-0.324,0.103-0.495l-1.564-9.716
	c-0.03-0.188-0.135-0.357-0.29-0.468c-0.156-0.111-0.354-0.157-0.537-0.123l-9.768,1.71c-0.229,0.04-0.425,0.189-0.522,0.4
	l-3.946,8.394l-1.921-1.341c-0.167-0.116-0.377-0.156-0.577-0.108l-1.238,0.304l3.167-20.512l2.233-0.711L85.917,39.619z
	 M99.391,25.017h6.853v6.626L85.715,38.18L99.391,25.017z M82.411,39.006l-3.685,0.904l-1.038-0.348V2.638l8.762,10.204
	L82.411,39.006z M76.262,2.638v36.445l-4.529-1.52c-0.136-0.044-0.278-0.032-0.414,0.005L67.5,12.842L76.262,2.638z M47.708,25.017
	h6.852L68.234,38.18l-20.527-6.537V25.017z M41.701,56.509c0.116-0.069,0.21-0.169,0.272-0.29l3.313-6.47l7.038-1.782
	c0.131-0.034,0.25-0.104,0.343-0.201l4.998-5.273l7.255,0.274c0.133,0.01,0.269-0.029,0.385-0.096l4.361-2.535l0.635,0.202
	l3.086,19.981l-3.407,1.98l-1.442-0.055l-3.635-6.923c-0.081-0.154-0.215-0.273-0.378-0.335l-9.183-3.502
	c-0.178-0.068-0.376-0.062-0.55,0.018c-0.173,0.08-0.309,0.226-0.374,0.405l-3.405,9.327c-0.08,0.219-0.048,0.463,0.084,0.653
	l5.56,8.016l-0.152,0.298l-2.719,1.607L38.683,59.652l0.34-1.56L41.701,56.509z M35.207,58.689l-0.761,0.45
	c-0.176,0.104-0.299,0.28-0.338,0.481l-0.731,3.849L3.098,45.962l13.197-2.497L35.207,58.689z M6.817,59.902l-4.441-12.7
	l30.716,17.76l-0.364,1.916l-2.119,2.27L6.817,59.902z M13.181,86.468l-5.729-3.313l3.426-5.941l16.765-4.858
	c-0.099,0.139-0.158,0.304-0.141,0.477l0.05,0.513L13.181,86.468z M29.038,93.878l-2.713-6.743l3.263-6.495
	c0.061-0.121,0.086-0.256,0.072-0.391l-0.618-6.332l3.049-2.785l18.39,7.121l-1.25,1.339c-0.14,0.15-0.209,0.354-0.189,0.558
	l0.301,3.094l-8.211-0.322c-0.171-0.011-0.339,0.047-0.473,0.155l-7.798,6.213c-0.151,0.121-0.248,0.298-0.266,0.492
	c-0.019,0.193,0.042,0.387,0.169,0.533l6.541,7.617c0.136,0.158,0.334,0.248,0.541,0.248c0.02,0,0.04-0.002,0.06-0.004l9.289-0.773
	l1.813,2.299l0.036,0.346l-18.697,7.266c-0.025-0.063-0.033-0.131-0.074-0.184l-4.5-5.705l1.304-7.152
	C29.102,94.142,29.086,94.003,29.038,93.878z M10.52,101.597l-3.425-5.941l5.729-3.313l15.917,14.533L10.52,101.597z M6.46,118.908
	l24.717-9.604l0.541,5.133l-29.7,17.174L6.46,118.908z M15.938,135.345l-13.205-2.498l7.245-4.188l22.243-12.861l4.251,3.018
	L15.938,135.345z M36.362,146.423l-3.426-5.943l4.544-18.441l4.61,21.072L36.362,146.423z M67.438,138.847l-5.955-4.158
	c-0.111-0.078-0.241-0.121-0.376-0.127l-7.252-0.33l-4.544-5.672c-0.085-0.104-0.197-0.184-0.325-0.227l-6.865-2.363l-2.765-6.725
	c-0.052-0.125-0.137-0.232-0.248-0.311l-0.27-0.191l15.639-12.588l0.517,0.365l1.525,3.709c0.078,0.191,0.234,0.338,0.428,0.404
	l0.175,0.061l-4.186,6.646c-0.091,0.145-0.128,0.316-0.103,0.486l1.474,9.869c0.029,0.191,0.135,0.363,0.293,0.477
	c0.121,0.088,0.267,0.133,0.414,0.133c0.044,0,0.088-0.004,0.132-0.014l9.857-1.863c0.225-0.043,0.415-0.189,0.513-0.396
	l4.282-9.098l1.255,0.877c0.169,0.117,0.377,0.156,0.579,0.107l1.784-0.438l-3.194,20.682l-0.269,0.064
	c-0.087-0.006-0.176-0.002-0.265,0.023l-0.753,0.227L67.438,138.847z M53.877,154.054l-6.171-0.32v-7.369l19.695-5.93
	L53.877,154.054z M71.488,139.328l3.139-0.771l1.633,0.549v36.256l-8.762-10.203L71.488,139.328z M77.688,175.361v-35.775
	l3.933,1.318c0.074,0.025,0.15,0.037,0.228,0.037c0.125,0,0.248-0.031,0.357-0.096l0.449-0.262l3.795,24.574L77.688,175.361z
	 M106.244,146.361v7.338h-6.138l-14.082-13.566L106.244,146.361z M111.653,121.958c-0.115,0.066-0.211,0.168-0.271,0.289
	l-3.313,6.469l-7.037,1.783c-0.131,0.033-0.25,0.104-0.344,0.201l-4.998,5.273l-7.254-0.273c-0.138-0.016-0.271,0.027-0.387,0.096
	l-3.895,2.264l-0.466-0.145l-3.108-20.125l2.793-1.623l0.97,0.037l4.26,8.104c0.079,0.152,0.212,0.271,0.37,0.332l9.271,3.656
	c0.085,0.033,0.173,0.051,0.262,0.051c0.102,0,0.202-0.021,0.297-0.064c0.178-0.08,0.313-0.23,0.377-0.414l3.315-9.48
	c0.075-0.217,0.043-0.455-0.087-0.645l-5.987-8.641l0.431-0.838l2.135-1.264l16.074,12.939L111.653,121.958z M118.141,147.98
	l-6.295-3.639l3.947-20.516l4.963,18.344L118.141,147.98z M138.012,136.583l-20.447-16.461l1.344-0.795
	c0.177-0.104,0.3-0.279,0.338-0.48l0.557-2.926l31.415,18.164L138.012,136.583z M151.932,132.847l-31.848-18.414l0.541-2.844
	l1.289-1.381l25.574,9.938L151.932,132.847z M141.13,93.583l6.343,3.668l-3.068,5.322l-18.771,5.43L141.13,93.583z M125.582,77.041
	l-1.306,7.152c-0.022,0.133-0.01,0.27,0.041,0.396l2.713,6.743l-3.264,6.496c-0.061,0.119-0.086,0.256-0.072,0.391l0.707,7.236
	l-2.867,3.07l-19.387-7.533l1.978-2.119c0.14-0.148,0.209-0.354,0.188-0.559l-0.205-2.09l8.531,0.281c0.01,0,0.021,0,0.027,0
	c0.164,0,0.324,0.123,0.451,0.02l7.619-6.035c0.147-0.121,0.242-0.296,0.26-0.486c0.02-0.189-0.04-0.381-0.162-0.525l-6.363-7.617
	c-0.148-0.179-0.377-0.278-0.605-0.253l-8.899,0.747c0-0.159-0.038-0.315-0.137-0.442l-2.22-2.813l18.826-7.316L125.582,77.041z
	 M148.559,59.71l-26.303,10.221l-0.51-4.851l31.256-18.072L148.559,59.71z"/>
</svg>
