<?xml version="1.0" encoding="utf-8"?>
<!-- Generator: Adobe Illustrator 15.0.0, SVG Export Plug-In  -->
<!DOCTYPE svg PUBLIC "-//W3C//DTD SVG 1.1//EN" "http://www.w3.org/Graphics/SVG/1.1/DTD/svg11.dtd" [
	<!ENTITY ns_flows "http://ns.adobe.com/Flows/1.0/">
]>
<svg version="1.1"
	 xmlns="http://www.w3.org/2000/svg" xmlns:xlink="http://www.w3.org/1999/xlink" xmlns:a="http://ns.adobe.com/AdobeSVGViewerExtensions/3.0/"
	 x="0px" y="0px" width="185px" height="185px" viewBox="-14.99 -3.985 185 185" enable-background="new -14.99 -3.985 185 185"
	 xml:space="preserve">
<defs>
</defs>
<g>
	<g>
		<path fill="#A2DBEB" d="M155.018,45.484c0.003-0.035,0.001-0.069-0.001-0.104c-0.002-0.025,0.003-0.05-0.001-0.075
			c-0.002-0.014-0.01-0.025-0.013-0.038c-0.008-0.033-0.02-0.064-0.032-0.096c-0.014-0.036-0.027-0.071-0.047-0.104
			c-0.016-0.027-0.035-0.051-0.056-0.077c-0.024-0.032-0.05-0.063-0.079-0.09c-0.009-0.007-0.014-0.018-0.022-0.025
			c-0.017-0.014-0.037-0.021-0.055-0.033c-0.032-0.022-0.064-0.043-0.101-0.061c-0.033-0.015-0.066-0.025-0.102-0.036
			c-0.022-0.007-0.043-0.019-0.066-0.023l-15.42-2.916c-0.203-0.037-0.416,0.015-0.58,0.145l-19.825,15.959l5.182-20.69
			c0.044-0.18,0.018-0.372-0.075-0.532l-3.568-6.196c-0.096-0.164-0.252-0.294-0.434-0.343c-0.184-0.049-0.379-0.043-0.542,0.052
			l-7.418,4.25c-0.271,0.157-0.409,0.395-0.339,0.701l5.509,23.936c0.014,0.058,0.04,0.091,0.066,0.125l-0.342,0.275l-1.418-1.006
			l-2.808-6.83c-0.078-0.19-0.234-0.338-0.429-0.404l-6.976-2.401l-4.617-5.762c-0.129-0.16-0.319-0.258-0.524-0.267l-7.368-0.335
			l-4.891-3.415l19.545-6.225c0.297-0.094,0.498-0.37,0.498-0.682v-7.863c0-0.396-0.319-0.715-0.714-0.715h-7.853
			c-0.186,0-0.361,0.071-0.495,0.199l-14.57,14.024l3.873-25.075c0.032-0.207-0.028-0.417-0.165-0.576L77.516,0.245
			c-0.015-0.017-0.034-0.027-0.05-0.043c-0.028-0.026-0.055-0.052-0.087-0.074c-0.031-0.021-0.063-0.037-0.096-0.053
			c-0.021-0.01-0.038-0.025-0.06-0.034c-0.012-0.004-0.024-0.003-0.036-0.007c-0.035-0.011-0.071-0.017-0.108-0.022
			C77.043,0.006,77.008,0,76.973,0c-0.033,0-0.066,0.005-0.099,0.01c-0.039,0.005-0.077,0.012-0.115,0.023
			c-0.011,0.003-0.022,0.003-0.033,0.007c-0.021,0.008-0.036,0.022-0.056,0.031c-0.036,0.017-0.07,0.034-0.102,0.057
			c-0.031,0.021-0.057,0.047-0.084,0.072c-0.016,0.016-0.036,0.026-0.051,0.044L66.202,12.16c-0.136,0.158-0.196,0.369-0.164,0.576
			l3.873,25.075L55.34,23.787c-0.133-0.128-0.31-0.199-0.495-0.199h-7.853c-0.395,0-0.714,0.319-0.714,0.715v7.863
			c0,0.312,0.201,0.587,0.498,0.682l21.052,6.704l-3.062,1.78l-7.371-0.279c-0.196-0.009-0.404,0.074-0.545,0.222l-5.079,5.357
			l-7.15,1.812c-0.198,0.05-0.366,0.185-0.46,0.367l-3.365,6.573l-1.358,0.803l4.516-20.69c0.067-0.303-0.071-0.615-0.34-0.771
			l-6.8-3.93c-0.342-0.198-0.779-0.077-0.975,0.266l-3.926,6.817c-0.092,0.16-0.119,0.365-0.074,0.544l4.781,19.43l-0.099,0.059
			L16.932,42.144c-0.163-0.13-0.374-0.184-0.58-0.145L1.025,44.898c-0.149,0.007-0.295,0.059-0.415,0.159
			c-0.021,0.017-0.034,0.039-0.052,0.058c-0.002,0.002-0.004,0.004-0.006,0.006c-0.047,0.05-0.086,0.103-0.116,0.161
			c-0.004,0.008-0.008,0.017-0.012,0.025C0.4,45.36,0.381,45.414,0.37,45.471c-0.002,0.009-0.007,0.017-0.009,0.027
			c-0.003,0.018,0.001,0.035,0,0.052c-0.003,0.036-0.005,0.071-0.001,0.108c0.003,0.058,0.015,0.113,0.031,0.168
			c0.001,0.002,0,0.005,0.001,0.008l0.006,0.016c0.01,0.029,0.016,0.058,0.03,0.085l5.151,14.708
			c0.069,0.197,0.221,0.311,0.416,0.387l23.645,9.155l-0.13,0.14l-19.306,5.594c-0.177,0.052-0.327,0.17-0.419,0.33l-3.926,6.81
			c-0.197,0.342-0.08,0.779,0.262,0.977l6.8,3.932c0.111,0.064,0.234,0.096,0.356,0.096c0.174,0,0.347-0.064,0.481-0.187
			l13.968-12.756l0.494,5.063l-3.315,6.598c-0.092,0.184-0.101,0.398-0.024,0.589l2.756,6.852l-1.324,7.267
			c-0.037,0.202,0.015,0.411,0.142,0.571l2.24,2.84L13.399,90.935c-0.23-0.209-0.568-0.244-0.838-0.089l-6.799,3.937
			C5.42,94.98,5.303,95.424,5.5,95.767l3.926,6.824c0.092,0.16,0.243,0.309,0.42,0.36l19.241,5.63l-23.45,9.112
			c-0.195,0.076-0.346,0.233-0.415,0.431l-5.188,14.832c-0.007,0.021-0.007,0.043-0.012,0.064c-0.009,0.038-0.018,0.074-0.021,0.113
			c-0.003,0.036-0.001,0.07,0.001,0.105c0.001,0.024-0.003,0.049,0.001,0.073c0.002,0.013,0.009,0.024,0.012,0.037
			c0.008,0.034,0.021,0.065,0.033,0.098c0.014,0.035,0.026,0.07,0.045,0.103c0.016,0.027,0.037,0.053,0.057,0.078
			c0.024,0.031,0.049,0.062,0.079,0.089c0.008,0.008,0.014,0.018,0.022,0.025c0.014,0.012,0.032,0.017,0.047,0.027
			c0.04,0.028,0.081,0.053,0.126,0.072c0.031,0.013,0.061,0.023,0.093,0.032c0.02,0.006,0.037,0.017,0.057,0.021l15.419,2.916
			c0.044,0.009,0.088,0.013,0.132,0.013c0.161,0,0.319-0.055,0.448-0.158l19.748-15.896l-4.841,19.649
			c-0.045,0.18-0.018,0.368,0.074,0.528l3.926,6.811c0.095,0.164,0.251,0.283,0.434,0.333c0.061,0.016,0.123,0.024,0.185,0.024
			c0.124,0,0.248-0.033,0.357-0.096l6.8-3.932c0.269-0.156,0.407-0.469,0.34-0.772l-4.674-21.362l1.999,4.86
			c0.078,0.19,0.234,0.337,0.428,0.403l6.975,2.401l4.617,5.762c0.129,0.159,0.32,0.257,0.525,0.267l7.368,0.335l4.941,3.451
			l-18.988,5.717c-0.302,0.091-0.508,0.369-0.508,0.685v8.579c0,0.38,0.298,0.508,0.677,0.528l7.167,0.187c0.012,0,0.024,0,0.037,0
			c0.189,0,0.372,0.11,0.506-0.024l15.292-15.219l-3.92,25.38c-0.032,0.207,0.028,0.417,0.164,0.576l10.232,11.915
			c0.01,0.011,0.024,0.016,0.034,0.025c0.051,0.054,0.11,0.098,0.176,0.133c0.019,0.01,0.035,0.022,0.055,0.03
			c0.01,0.005,0.018,0.012,0.027,0.016c0.081,0.029,0.166,0.045,0.249,0.045s0.167-0.016,0.248-0.045
			c0.01-0.004,0.018-0.011,0.027-0.016c0.02-0.008,0.036-0.021,0.055-0.03c0.066-0.035,0.125-0.079,0.176-0.132
			c0.01-0.011,0.025-0.015,0.035-0.026l10.231-11.915c0.137-0.159,0.197-0.369,0.165-0.576l-3.87-25.058l15.281,14.721
			c0.133,0.128,0.311,0.2,0.495,0.2h7.139c0.395,0,0.714-0.319,0.714-0.715v-8.579c0-0.314-0.205-0.591-0.504-0.684l-21.153-6.518
			l2.573-1.495l7.37,0.278c0.209,0.02,0.404-0.072,0.545-0.222l5.079-5.357l7.15-1.812c0.198-0.051,0.366-0.185,0.459-0.367
			l3.366-6.573l2.173-1.285l-4.381,22.771c-0.058,0.3,0.08,0.603,0.344,0.755l7.418,4.289c0.109,0.063,0.233,0.096,0.357,0.096
			c0.074,0,0.147-0.011,0.219-0.034c0.192-0.062,0.35-0.202,0.432-0.387l3.046-6.766c0.067-0.15,0.081-0.32,0.037-0.48
			l-5.654-20.902l20.827,16.765c0.129,0.103,0.287,0.157,0.447,0.157c0.045,0,0.089-0.004,0.133-0.012l15.42-2.918
			c0.151-0.028,0.283-0.104,0.385-0.212c0.137-0.126,0.225-0.303,0.225-0.508c0-0.152-0.047-0.276-0.129-0.394l-5.127-14.657
			c-0.068-0.196-0.221-0.354-0.416-0.431l-23.602-9.171l20.368-5.894c0.177-0.051,0.327-0.169,0.421-0.329l3.568-6.19
			c0.197-0.343,0.08-0.779-0.261-0.977l-7.419-4.29c-0.271-0.156-0.612-0.118-0.842,0.096l-14.721,13.698
			c0.019-0.077,0.035-0.157,0.027-0.238l-0.718-7.353l3.315-6.599c0.092-0.184,0.102-0.397,0.024-0.588l-2.757-6.852l1.325-7.267
			c0.037-0.202-0.015-0.411-0.142-0.572l-4.074-5.163l0.133-0.052c0.012,0.175,0.081,0.345,0.215,0.471l18.438,17.443
			c0.136,0.13,0.313,0.195,0.49,0.195c0.122,0,0.245-0.031,0.356-0.096l7.418-4.289c0.342-0.197,0.459-0.635,0.262-0.977
			l-4.283-7.429c-0.095-0.165-0.252-0.285-0.436-0.333l-20.969-5.564l24.932-9.688c0.195-0.076,0.347-0.233,0.415-0.43l5.188-14.831
			c0.008-0.021,0.007-0.043,0.012-0.065C155.006,45.561,155.015,45.523,155.018,45.484z M112.933,35.506l6.343-3.668l3.069,5.323
			l-4.69,18.997L112.933,35.506z M36.719,32.388l5.729,3.313l-4.61,21.071l-4.544-18.443L36.719,32.388z M144.766,77.483
			l3.778,6.552l-6.339,3.667l-16.01-15.146L144.766,77.483z M113.615,83.062l5.66,6.776l-6.849,5.586l-8.429-0.333l-0.075-0.769
			l1.801-3.585c0.092-0.184,0.102-0.397,0.024-0.588l-1.497-3.721l0.478-2.622L113.615,83.062z M102.848,86.771l1.454,3.613
			l-1.748,3.48c-0.062,0.121-0.086,0.257-0.073,0.392l0.076,0.778L86.254,94.39v-9.034l17.001-1.425l-0.446,2.445
			C102.785,86.509,102.799,86.646,102.848,86.771z M102.86,98.132l-2.148,2.302l-12.148-4.721l14.105,0.465L102.86,98.132z
			 M119.262,111.119l-0.486,2.559l-17.701-10.233l0.236-1.241l19.17,7.449l-1.039,1.113
			C119.35,110.864,119.288,110.986,119.262,111.119z M95.674,107.43l-0.176,0.343l-5.604-8.087l7.901,6.36l-1.851,1.094
			C95.831,107.209,95.735,107.309,95.674,107.43z M95.682,110.546l5.346,7.714l-2.951,8.436l-8.336-3.286l-3.753-7.144l1.388,0.053
			c0.211,0.016,0.404-0.073,0.545-0.222l2.758-2.91l3.884-0.984c0.2-0.051,0.366-0.184,0.46-0.367L95.682,110.546z M93.899,110.896
			l-3.771,0.956c-0.131,0.033-0.249,0.104-0.343,0.201l-2.677,2.825l-1.887-0.071l-7.227-13.754l-0.188-1.219l7.209-4.168
			c0.017,0.032,0.038,0.062,0.06,0.091c0.014,0.02,0.029,0.036,0.046,0.055c0.027,0.031,0.047,0.068,0.081,0.096l0.764,0.614
			l8.795,12.692L93.899,110.896z M68.417,114.226c-0.111-0.077-0.241-0.121-0.376-0.127l-3.886-0.178l-2.434-3.037
			c-0.085-0.105-0.197-0.185-0.325-0.229l-2.103-0.725l8.887-14.106l0.289-0.024c0.083-0.007,0.159-0.032,0.231-0.064l7.104,4.107
			c0.01,0.085,0.032,0.169,0.074,0.249l0.145,0.275l-6.791,14.427L68.417,114.226z M68.612,116.107l-4.23,8.985l-8.771,1.659
			l-1.325-8.872l4.224-6.706l2.227,0.767l2.507,3.129c0.129,0.16,0.32,0.258,0.525,0.267l4.001,0.183L68.612,116.107z
			 M57.716,109.389l-1.481-3.603c-0.052-0.125-0.138-0.232-0.248-0.311l-0.354-0.252l10.012-8.059l-7.741,12.288L57.716,109.389z
			 M32.556,108.767l18.644-7.244l0.164,1.555l-18.292,10.577L32.556,108.767z M52.406,99.349c-0.014-0.135-0.065-0.263-0.149-0.369
			l-1.354-1.716l9.306-0.775l-7.786,3.025L52.406,99.349z M50.493,80.334l1.422-1.524l13.039,5.049l-14.172-0.557L50.493,80.334z
			 M32.042,69.704l1.868-2.001c0.092-0.099,0.155-0.222,0.18-0.354l0.31-1.63l17.701,10.234l-0.135,0.711l-0.536,0.574
			L32.042,69.704z M36.395,59.646l0.87,0.7c0.103,0.192,0.277,0.338,0.481,0.388l14.959,12.042l-0.32,1.686L34.684,64.226
			l0.764-4.021L36.395,59.646z M57.542,71.183l5.736,8.269l-8.306-6.686l2.434-1.439C57.465,71.293,57.497,71.231,57.542,71.183z
			 M59.454,67.571l3.771-0.955c0.131-0.034,0.25-0.104,0.343-0.201l2.678-2.825l1.413,0.053l8.296,15.799l-7.384,4.27l-1.354-1.089
			l-8.9-12.83L59.454,67.571z M57.394,68.462l-4.915-7.084l3.03-8.298l8.255,3.147l3.128,5.957l-0.916-0.035
			c-0.198-0.006-0.403,0.073-0.545,0.222l-2.758,2.909l-3.883,0.984c-0.2,0.051-0.367,0.185-0.46,0.368L57.394,68.462z
			 M71.545,39.044l0.039-0.022l4.676,1.569v20.384l-1.4-0.47L71.545,39.044z M77.284,98.485c-0.016-0.008-0.036-0.008-0.052-0.015
			c-0.037-0.014-0.075-0.022-0.115-0.031c-0.03-0.006-0.056-0.021-0.087-0.023c-0.019-0.001-0.035,0.007-0.054,0.007
			c-0.02,0-0.037-0.008-0.057-0.007c-0.034,0.003-0.063,0.019-0.095,0.026c-0.035,0.008-0.069,0.015-0.102,0.027
			c-0.049,0.019-0.093,0.043-0.137,0.072c-0.028,0.019-0.056,0.035-0.081,0.058l-7.383-4.269v-9.119
			c0.041-0.038,0.091-0.062,0.124-0.11c0.037-0.054,0.055-0.114,0.075-0.173l7.476-4.322l8.03,4.644v8.874L77.284,98.485z
			 M76.261,69.574l-1.155-7.478l1.155,0.387V69.574z M94.049,99.381l5.909,2.296l-0.192,1.01L94.049,99.381z M100.747,77.223
			l0.107,1.025l-5.735,2.229L100.747,77.223z M101.936,74.884l-0.012-0.111c-0.021-0.204-0.131-0.389-0.297-0.508l-0.555-0.394
			l15.639-12.589l3.457,2.454l0.061,0.571L101.936,74.884z M100.538,75.245l0.045,0.422l-6.178,3.572l5.511-4.436L100.538,75.245z
			 M87.94,82.609l8.024-12.731l1.153,2.804c0.051,0.125,0.137,0.232,0.247,0.311l1.34,0.951L87.94,82.609z M95.714,67.594
			l-3.098-1.066l-2.507-3.129c-0.129-0.16-0.32-0.257-0.525-0.267l-4-0.182l-0.18-0.125l3.893-8.278l8.69-1.522l1.405,8.734
			L95.714,67.594z M84.936,64.241c0.111,0.078,0.242,0.122,0.377,0.127l3.885,0.177l2.435,3.038
			c0.085,0.106,0.197,0.185,0.325,0.229l2.975,1.024l-9.52,15.102l-7.811-4.517l7.186-15.284L84.936,64.241z M78.389,74.392
			l1.854-12.011l1.502-0.368l1.854,1.295L78.389,74.392z M77.688,69.574v-6.646c0.093,0.015,0.187,0.034,0.279,0.012l0.775-0.19
			L77.688,69.574z M77.828,61.501l-0.139-0.047V41.07l0.779,0.261c0.128,0.042,0.266,0.048,0.396,0.017l3.31-0.812l-3.194,20.682
			L77.828,61.501z M75.829,76.132l-6.526-12.427l0.829,0.031c0.126,0.008,0.269-0.029,0.385-0.096l3.104-1.803L75.829,76.132z
			 M60.957,79.417l-7.263-4.199l0.271-1.429L60.957,79.417z M53.15,77.489c0.092-0.098,0.155-0.221,0.18-0.354l0.081-0.425
			l6.847,3.958l-7.393-2.873L53.15,77.489z M47.605,88.318l1.497,3.721l-0.719,3.946c-0.003,0.019,0.003,0.036,0.001,0.055
			l-8.234,0.687l-5.82-6.777l7.01-5.586l7.826,0.308l-1.537,3.059C47.537,87.913,47.528,88.127,47.605,88.318z M50.504,91.696
			l-1.455-3.612l1.684-3.352l16.695,0.656c0.077,0.081,0.165,0.14,0.266,0.176v8.016l-2.786,1.083l-15.062,1.255l0.698-3.825
			C50.568,91.958,50.554,91.822,50.504,91.696z M59.902,98.141l-7.185,4.154l-0.138-1.309L59.902,98.141z M51.972,104.377
			l1.294,0.919l-15.639,12.589l-4.047-2.873L51.972,104.377z M53.333,103.591l7.283-4.211l-6.192,4.984L53.333,103.591z
			 M75.309,105.232l-1.655,10.721l-2.047,0.502l-1.189-0.831L75.309,105.232z M76.261,108.426v7.279l-0.479-0.161
			c-0.073-0.024-0.15-0.037-0.227-0.037c-0.057,0-0.114,0.007-0.17,0.021l-0.23,0.057L76.261,108.426z M77.688,108.426l1.264,8.183
			l-1.264-0.424V108.426z M75.524,116.966l0.736,0.247v20.385l-1.376-0.462c-0.073-0.025-0.149-0.037-0.227-0.037
			c-0.057,0-0.113,0.007-0.17,0.02l-2.763,0.678l3.194-20.682L75.524,116.966z M77.688,117.693l1.509,0.506l3.223,20.868
			l-0.652,0.379l-4.08-1.369V117.693z M78.667,105.402l4.908,9.343l-0.354-0.014c-0.14-0.013-0.27,0.028-0.386,0.096l-2.489,1.447
			L78.667,105.402z M93.334,100.619l6.148,3.555l-0.188,0.986l-0.185,0.109L93.334,100.619z M100.637,105.745l0.155-0.814
			l17.7,10.234l-0.589,3.097l-1.529,0.904l-16.075-12.939C100.476,106.122,100.599,105.947,100.637,105.745z M91.287,83.5
			l9.931-3.859l2.239,2.838L91.287,83.5z M102.234,77.712L102.1,76.44l18.293-10.577l0.484,4.604L102.234,77.712z M139.083,43.274
			l13.205,2.497l-6.204,3.587l-24.501,14.167l-0.027-0.26c-0.021-0.205-0.13-0.39-0.297-0.508l-3.39-2.406L139.083,43.274z
			 M85.917,39.619l5.954,4.159c0.11,0.078,0.241,0.122,0.376,0.128l7.253,0.33l4.544,5.671c0.084,0.105,0.197,0.184,0.324,0.228
			l6.866,2.364l2.765,6.723c0.051,0.125,0.137,0.232,0.247,0.31l1.255,0.891L99.862,73.012l-1.503-1.067l-1.46-3.551l3.846-6.102
			c0.094-0.147,0.129-0.324,0.102-0.495l-1.564-9.716c-0.03-0.188-0.135-0.357-0.29-0.468c-0.156-0.111-0.354-0.157-0.537-0.123
			l-9.768,1.71c-0.229,0.04-0.425,0.189-0.522,0.4l-3.947,8.394l-1.92-1.341c-0.167-0.116-0.377-0.156-0.578-0.108l-1.238,0.304
			l3.167-20.512l2.234-0.711L85.917,39.619z M99.391,25.017h6.852v6.626L85.715,38.18L99.391,25.017z M82.41,39.006l-3.685,0.904
			l-1.037-0.348V2.638l8.762,10.204L82.41,39.006z M76.261,2.638v36.445l-4.529-1.52c-0.136-0.044-0.278-0.032-0.414,0.005
			l-3.819-24.726L76.261,2.638z M47.707,25.017h6.852L68.234,38.18l-20.527-6.537V25.017z M41.7,56.509
			c0.116-0.069,0.21-0.169,0.272-0.29l3.313-6.47l7.038-1.782c0.131-0.034,0.25-0.104,0.343-0.201l4.998-5.273l7.255,0.274
			c0.133,0.01,0.269-0.029,0.385-0.096l4.361-2.535l0.635,0.202l3.086,19.981l-3.407,1.98l-1.442-0.055l-3.635-6.923
			c-0.081-0.154-0.215-0.273-0.378-0.335l-9.183-3.502c-0.178-0.068-0.376-0.062-0.55,0.018c-0.173,0.08-0.309,0.226-0.374,0.405
			l-3.405,9.327c-0.08,0.219-0.048,0.463,0.084,0.653l5.56,8.016l-0.152,0.298l-2.719,1.607L38.682,59.652l0.34-1.56L41.7,56.509z
			 M35.206,58.689l-0.761,0.45c-0.176,0.104-0.299,0.28-0.338,0.481l-0.731,3.849L3.097,45.962l13.197-2.497L35.206,58.689z
			 M6.817,59.902l-4.441-12.7l30.716,17.76l-0.364,1.916l-2.119,2.27L6.817,59.902z M13.18,86.468l-5.729-3.313l3.426-5.941
			l16.765-4.858c-0.099,0.139-0.158,0.304-0.141,0.477l0.05,0.513L13.18,86.468z M29.037,93.879l-2.713-6.743l3.263-6.495
			c0.061-0.121,0.086-0.256,0.072-0.391l-0.618-6.332l3.049-2.785l18.39,7.121l-1.25,1.339c-0.14,0.15-0.209,0.354-0.189,0.558
			l0.301,3.094l-8.211-0.322c-0.171-0.011-0.339,0.047-0.473,0.155l-7.798,6.213c-0.151,0.121-0.248,0.299-0.266,0.492
			c-0.019,0.193,0.042,0.386,0.169,0.533l6.541,7.617c0.136,0.158,0.334,0.248,0.541,0.248c0.02,0,0.04-0.001,0.06-0.003
			l9.289-0.774l1.813,2.299l0.036,0.345l-18.697,7.266c-0.025-0.062-0.033-0.13-0.074-0.183l-4.5-5.705l1.304-7.152
			C29.101,94.142,29.086,94.004,29.037,93.879z M10.519,101.597l-3.425-5.941l5.729-3.313l15.917,14.534L10.519,101.597z
			 M6.46,118.908l24.717-9.604l0.541,5.134l-29.7,17.173L6.46,118.908z M15.937,135.345l-13.205-2.497l7.245-4.188l22.243-12.861
			l4.251,3.018L15.937,135.345z M36.362,146.423l-3.426-5.942l4.544-18.442l4.61,21.072L36.362,146.423z M67.437,138.848
			l-5.955-4.159c-0.111-0.077-0.241-0.121-0.376-0.127l-7.252-0.33l-4.544-5.671c-0.085-0.105-0.197-0.185-0.325-0.228l-6.865-2.363
			l-2.765-6.724c-0.052-0.125-0.137-0.232-0.248-0.311l-0.27-0.191l15.639-12.589l0.517,0.367l1.525,3.709
			c0.078,0.19,0.234,0.338,0.428,0.404l0.175,0.061l-4.186,6.645c-0.091,0.145-0.128,0.316-0.103,0.486l1.474,9.87
			c0.029,0.192,0.135,0.364,0.293,0.477c0.121,0.087,0.267,0.132,0.414,0.132c0.044,0,0.088-0.004,0.132-0.013l9.857-1.864
			c0.225-0.043,0.415-0.19,0.513-0.397l4.282-9.096l1.255,0.877c0.169,0.117,0.377,0.156,0.579,0.107l1.784-0.438l-3.194,20.682
			l-0.269,0.065c-0.087-0.007-0.176-0.002-0.265,0.023l-0.753,0.227L67.437,138.848z M53.877,154.054l-6.171-0.32v-7.369
			l19.695-5.929L53.877,154.054z M71.488,139.327l3.139-0.77l1.633,0.548v36.256l-8.762-10.203L71.488,139.327z M77.688,175.361
			v-35.776l3.933,1.319c0.074,0.025,0.15,0.037,0.227,0.037c0.125,0,0.248-0.032,0.358-0.096l0.449-0.261l3.795,24.573
			L77.688,175.361z M106.243,146.362v7.336h-6.137l-14.083-13.566L106.243,146.362z M111.653,121.958
			c-0.116,0.068-0.211,0.169-0.272,0.289l-3.313,6.47l-7.037,1.783c-0.131,0.033-0.25,0.104-0.344,0.201l-4.998,5.273l-7.254-0.274
			c-0.137-0.015-0.27,0.028-0.386,0.096l-3.895,2.264l-0.466-0.144l-3.108-20.125l2.793-1.624l0.97,0.037l4.259,8.105
			c0.079,0.151,0.212,0.27,0.37,0.332l9.272,3.656c0.085,0.033,0.173,0.05,0.262,0.05c0.102,0,0.202-0.021,0.297-0.065
			c0.177-0.08,0.312-0.23,0.376-0.413l3.316-9.481c0.076-0.216,0.043-0.455-0.087-0.644l-5.987-8.641l0.43-0.838l2.135-1.263
			l16.075,12.939L111.653,121.958z M118.141,147.981l-6.295-3.64l3.947-20.516l4.963,18.344L118.141,147.981z M138.012,136.583
			l-20.448-16.46l1.344-0.795c0.177-0.104,0.3-0.28,0.338-0.481l0.557-2.926l31.415,18.164L138.012,136.583z M151.931,132.847
			l-31.847-18.413l0.541-2.844l1.289-1.382l25.574,9.938L151.931,132.847z M141.13,93.583l6.343,3.668l-3.068,5.322l-18.771,5.431
			L141.13,93.583z M125.581,77.041l-1.305,7.152c-0.023,0.133-0.01,0.27,0.04,0.396l2.714,6.743l-3.264,6.495
			c-0.061,0.12-0.086,0.256-0.072,0.391l0.706,7.236l-2.867,3.071l-19.387-7.533l1.978-2.119c0.14-0.149,0.209-0.354,0.188-0.558
			l-0.204-2.09l8.531,0.281c0.01,0,0.02,0,0.027,0c0.164,0,0.324,0.122,0.451,0.019l7.62-6.035c0.147-0.121,0.241-0.296,0.259-0.486
			c0.019-0.19-0.04-0.381-0.162-0.526l-6.363-7.617c-0.148-0.179-0.377-0.278-0.606-0.253l-8.899,0.747
			c0-0.159-0.038-0.315-0.137-0.442L102.61,79.1l18.825-7.316L125.581,77.041z M148.559,59.71l-26.303,10.221l-0.51-4.851
			l31.256-18.072L148.559,59.71z"/>
	</g>
</g>
</svg>
